<?xml version="1.0" encoding="UTF-8" standalone="no"?>
<svg id="Layer_1" data-name="Layer 1" xmlns="http://www.w3.org/2000/svg" viewBox="0 0 675.749 247.73"><defs><style>.cls-1{fill:#fff;}</style></defs><path class="cls-1" d="M102.508,18.335a143.415,143.415,0,0,1,76.124,1.693A114.382,114.382,0,0,1,222.28,45.256c9.869,8.778,17.442,19.712,25.329,30.207-11.36,8.564-22.645,17.228-34.031,25.78-5.542-7.26-10.357-15.122-16.8-21.655a73.878,73.878,0,0,0-42.544-22.194c-20.138-3.247-41.88-1.041-59.6,9.618-18.119,10.846-31.9,29.09-36.263,49.854-3.874,18.483-2.658,38.382,5.229,55.686,10.52,22.532,32.263,39.761,56.965,43.736,22.294,3.736,46.8.689,65.49-12.765,11.624-7.9,19.361-19.837,27.523-30.971,11.386,8.526,22.658,17.2,34.031,25.767-5.429,7.2-10.62,14.6-16.614,21.329a115.7,115.7,0,0,1-60.4,36.313,143.387,143.387,0,0,1-73.253-1.981c-26.244-7.9-49.1-25.7-64.036-48.589-13.392-20.539-19.473-45.353-18.921-69.741-.213-27.122,8.1-54.645,25.153-75.949C55.35,39.614,77.644,24.58,102.508,18.335Z" transform="translate(-14.35 -12.373)"/><path class="cls-1" d="M521.334,24.709C533.9,11.292,557.183,10.364,570.8,22.677a37.48,37.48,0,0,1,7.461,9.041C612.2,100.206,656.169,191.285,690.1,259.773c-15.322-.189-30.645.438-45.967.313-28.727-58.72-67.476-140.031-96.391-198.651-9.667,17.831-19.1,35.8-28.965,53.516-15.786-.112-31.585-.087-47.372-.012,13.229-24.363,26.169-48.889,39.335-73.278C514.011,35.856,516.318,29.336,521.334,24.709Z" transform="translate(-14.35 -12.373)"/><path class="cls-1" d="M578.958,164.5l-15.187-36.042H418.608V164.5h29.731c-2.062,3.91-3.916,7.935-6.214,11.715-7.047,11.774-16.651,22.244-28.576,29.191-18.721,10.834-41.592,12.84-62.544,8.777-18.646-3.611-35.285-14.884-46.57-30-13.266-17.4-17.3-40.414-14.457-61.767A77.945,77.945,0,0,1,359.9,54.965c21.768-2.345,45.215,2.094,62.481,16.213,9.944,7.686,16.69,18.457,24.088,28.413,11.4-8.539,22.695-17.2,34.068-25.768-9.843-13.467-19.962-27.071-33.517-37.077-24.5-19.11-56.65-26.307-87.258-23.937-21.228,1.329-42.306,7.849-59.961,19.861-23.611,15.812-41.429,40.3-48.388,67.936a142.611,142.611,0,0,0,.464,71.046,116.379,116.379,0,0,0,38.62,59.209c17.717,14.871,40.049,23.849,63,26.269,25.667,2.871,52.475-.464,75.71-12.15,19.448-10.031,36.312-25.417,47.259-44.426,6.594-11.9,12.616-24.124,19.16-36.053Z" transform="translate(-14.35 -12.373)"/></svg>
