{
    "asset" : {
        "generator" : "Khronos glTF Blender I/O v1.8.19",
        "version" : "2.0"
    },
    "extensionsUsed" : [
        "KHR_materials_unlit"
    ],
    "scene" : 0,
    "scenes" : [
        {
            "name" : "Scene",
            "nodes" : [
                5
            ]
        }
    ],
    "nodes" : [
        {
            "name" : "Clouds_1",
            "rotation" : [
                0.1908702850341797,
                0.2025245875120163,
                0.0603143610060215,
                0.9586002826690674
            ]
        },
        {
            "mesh" : 0,
            "name" : "Object_6"
        },
        {
            "children" : [
                1
            ],
            "name" : "Planet_2",
            "rotation" : [
                0.1908702850341797,
                0.2025245875120163,
                0.0603143610060215,
                0.9586002826690674
            ]
        },
        {
            "children" : [
                0,
                2
            ],
            "name" : "GLTF_SceneRootNode",
            "rotation" : [
                0.7071068286895752,
                0,
                0,
                0.7071068286895752
            ]
        },
        {
            "children" : [
                3
            ],
            "name" : "root"
        },
        {
            "children" : [
                4
            ],
            "name" : "Sketchfab_model",
            "rotation" : [
                -0.6956252455711365,
                -0.022898241877555847,
                0.02219405211508274,
                0.7176967263221741
            ]
        }
    ],
    "animations" : [
        {
            "channels" : [
                {
                    "sampler" : 0,
                    "target" : {
                        "node" : 0,
                        "path" : "rotation"
                    }
                },
                {
                    "sampler" : 1,
                    "target" : {
                        "node" : 0,
                        "path" : "scale"
                    }
                },
                {
                    "sampler" : 2,
                    "target" : {
                        "node" : 2,
                        "path" : "rotation"
                    }
                },
                {
                    "sampler" : 3,
                    "target" : {
                        "node" : 2,
                        "path" : "scale"
                    }
                }
            ],
            "name" : "Animation",
            "samplers" : [
                {
                    "input" : 4,
                    "interpolation" : "LINEAR",
                    "output" : 5
                },
                {
                    "input" : 6,
                    "interpolation" : "LINEAR",
                    "output" : 7
                },
                {
                    "input" : 4,
                    "interpolation" : "LINEAR",
                    "output" : 8
                },
                {
                    "input" : 6,
                    "interpolation" : "LINEAR",
                    "output" : 9
                }
            ]
        }
    ],
    "materials" : [
        {
            "extensions" : {
                "KHR_materials_unlit" : {}
            },
            "name" : "Planet",
            "pbrMetallicRoughness" : {
                "baseColorTexture" : {
                    "index" : 0
                },
                "metallicFactor" : 0,
                "roughnessFactor" : 0.9
            }
        }
    ],
    "meshes" : [
        {
            "name" : "Object_1",
            "primitives" : [
                {
                    "attributes" : {
                        "POSITION" : 0,
                        "NORMAL" : 1,
                        "TEXCOORD_0" : 2
                    },
                    "indices" : 3,
                    "material" : 0
                }
            ]
        }
    ],
    "textures" : [
        {
            "sampler" : 0,
            "source" : 0
        }
    ],
    "images" : [
        {
            "bufferView" : 4,
            "mimeType" : "image/png",
            "name" : "Planet_baseColor"
        }
    ],
    "accessors" : [
        {
            "bufferView" : 0,
            "componentType" : 5126,
            "count" : 6596,
            "max" : [
                0.6551179885864258,
                0.6613333821296692,
                0.6618664860725403
            ],
            "min" : [
                -0.6606217622756958,
                -0.6490849852561951,
                -0.6526646018028259
            ],
            "type" : "VEC3"
        },
        {
            "bufferView" : 1,
            "componentType" : 5126,
            "count" : 6596,
            "type" : "VEC3"
        },
        {
            "bufferView" : 2,
            "componentType" : 5126,
            "count" : 6596,
            "type" : "VEC2"
        },
        {
            "bufferView" : 3,
            "componentType" : 5123,
            "count" : 39042,
            "type" : "SCALAR"
        },
        {
            "bufferView" : 5,
            "componentType" : 5126,
            "count" : 361,
            "max" : [
                15
            ],
            "min" : [
                0
            ],
            "type" : "SCALAR"
        },
        {
            "bufferView" : 6,
            "componentType" : 5126,
            "count" : 361,
            "type" : "VEC4"
        },
        {
            "bufferView" : 7,
            "componentType" : 5126,
            "count" : 2,
            "max" : [
                15
            ],
            "min" : [
                0
            ],
            "type" : "SCALAR"
        },
        {
            "bufferView" : 8,
            "componentType" : 5126,
            "count" : 2,
            "type" : "VEC3"
        },
        {
            "bufferView" : 9,
            "componentType" : 5126,
            "count" : 361,
            "type" : "VEC4"
        },
        {
            "bufferView" : 10,
            "componentType" : 5126,
            "count" : 2,
            "type" : "VEC3"
        }
    ],
    "bufferViews" : [
        {
            "buffer" : 0,
            "byteLength" : 79152,
            "byteOffset" : 0
        },
        {
            "buffer" : 0,
            "byteLength" : 79152,
            "byteOffset" : 79152
        },
        {
            "buffer" : 0,
            "byteLength" : 52768,
            "byteOffset" : 158304
        },
        {
            "buffer" : 0,
            "byteLength" : 78084,
            "byteOffset" : 211072
        },
        {
            "buffer" : 0,
            "byteLength" : 627053,
            "byteOffset" : 289156
        },
        {
            "buffer" : 0,
            "byteLength" : 1444,
            "byteOffset" : 916212
        },
        {
            "buffer" : 0,
            "byteLength" : 5776,
            "byteOffset" : 917656
        },
        {
            "buffer" : 0,
            "byteLength" : 8,
            "byteOffset" : 923432
        },
        {
            "buffer" : 0,
            "byteLength" : 24,
            "byteOffset" : 923440
        },
        {
            "buffer" : 0,
            "byteLength" : 5776,
            "byteOffset" : 923464
        },
        {
            "buffer" : 0,
            "byteLength" : 24,
            "byteOffset" : 929240
        }
    ],
    "samplers" : [
        {
            "magFilter" : 9729,
            "minFilter" : 9987
        }
    ],
    "buffers" : [
        {
            "byteLength" : 929264,
            "uri" : "data:application/octet-stream;base64,"
        }
    ]
}
