<?xml version="1.0" encoding="utf-8"?>
<!-- Generator: Adobe Illustrator 26.0.1, SVG Export Plug-In . SVG Version: 6.00 Build 0)  -->
<svg version="1.1"
	 id="svg23" xmlns:inkscape="http://www.inkscape.org/namespaces/inkscape" xmlns:sodipodi="http://sodipodi.sourceforge.net/DTD/sodipodi-0.dtd" xmlns:svg="http://www.w3.org/2000/svg"
	 xmlns="http://www.w3.org/2000/svg" xmlns:xlink="http://www.w3.org/1999/xlink" x="0px" y="0px" viewBox="0 0 308.8 84"
	 style="enable-background:new 0 0 308.8 84;" xml:space="preserve">
<style type="text/css">
	.st0{fill:#FFFFFF;}
</style>
<sodipodi:namedview  bordercolor="#000000" borderopacity="0.25" id="namedview25" inkscape:deskcolor="#d1d1d1" inkscape:pagecheckerboard="0" inkscape:pageopacity="0.0" inkscape:showpageshadow="2" pagecolor="#ffffff">
	</sodipodi:namedview>
<g>
	<path id="XMLID_409_" class="st0" d="M20.6,14.2c5.8-1.5,12-1.3,17.8,0.4c3.8,1.2,7.3,3.2,10.2,5.9c2.3,2,4.1,4.6,5.9,7
		c-2.6,2-5.3,4-7.9,6c-1.3-1.7-2.4-3.5-3.9-5c-2.6-2.8-6.2-4.6-9.9-5.2c-4.7-0.8-9.8-0.2-13.9,2.2c-4.2,2.5-7.4,6.8-8.5,11.6
		c-0.9,4.3-0.6,8.9,1.2,13c2.5,5.3,7.5,9.3,13.3,10.2c5.2,0.9,10.9,0.2,15.3-3c2.7-1.8,4.5-4.6,6.4-7.2c2.7,2,5.3,4,7.9,6
		c-1.3,1.7-2.5,3.4-3.9,5c-3.7,4.2-8.7,7.2-14.1,8.5c-5.6,1.3-11.6,1.2-17.1-0.5c-6.1-1.8-11.4-6-14.9-11.3C1.3,53-0.1,47.2,0,41.5
		c0-6.3,1.9-12.7,5.9-17.7C9.6,19.1,14.8,15.6,20.6,14.2z"/>
	<path id="XMLID_408_" class="st0" d="M118.2,15.7c2.9-3.1,8.4-3.3,11.5-0.5c0.7,0.6,1.3,1.3,1.7,2.1c7.9,16,18.2,37.2,26.1,53.2
		c-3.6,0-7.1,0.1-10.7,0.1c-6.7-13.7-15.7-32.7-22.5-46.3c-2.3,4.2-4.5,8.3-6.8,12.5c-3.7,0-7.4,0-11,0c3.1-5.7,6.1-11.4,9.2-17.1
		C116.5,18.3,117,16.7,118.2,15.7z"/>
	<path id="XMLID_407_" class="st0" d="M131.7,48.3l-3.5-8.4H94.3v8.4h6.9c-0.5,0.9-0.9,1.9-1.4,2.7c-1.6,2.7-3.9,5.2-6.7,6.8
		c-4.4,2.5-9.7,3-14.6,2c-4.3-0.8-8.2-3.5-10.9-7c-3.1-4.1-4-9.4-3.4-14.4c0.5-4.2,2.6-8.2,5.7-11c2.9-2.7,6.7-4.3,10.6-4.7
		c5.1-0.5,10.5,0.5,14.6,3.8c2.3,1.8,3.9,4.3,5.6,6.6c2.7-2,5.3-4,7.9-6c-2.3-3.1-4.7-6.3-7.8-8.6c-5.7-4.5-13.2-6.1-20.3-5.6
		c-5,0.3-9.9,1.8-14,4.6c-5.5,3.7-9.7,9.4-11.3,15.8c-1.4,5.4-1.3,11.2,0.1,16.6c1.5,5.4,4.7,10.3,9,13.8c4.1,3.5,9.3,5.6,14.7,6.1
		c6,0.7,12.2-0.1,17.7-2.8c4.5-2.3,8.5-5.9,11-10.4c1.5-2.8,2.9-5.6,4.5-8.4H131.7z"/>
	<g id="XMLID_406_">
		<rect x="161.5" y="5.1" class="st0" width="2.4" height="73.6"/>
	</g>
	<g id="XMLID_391_">
		<path id="XMLID_402_" class="st0" d="M199.7,27.9v1.7l-5.6,0.4c1.5,1.9,2.3,3.9,2.3,6.2c0,2.6-0.9,4.8-2.6,6.4
			c-1.7,1.6-4.1,2.4-7,2.4c-1.2,0-2.1-0.1-2.6-0.2c-1,0.5-1.7,1.1-2.3,1.8c-0.5,0.7-0.8,1.4-0.8,2.2c0,0.9,0.3,1.5,1,1.9
			c0.7,0.4,1.8,0.6,3.3,0.6h4.8c3,0,5.2,0.6,6.8,1.8c1.6,1.2,2.4,3,2.4,5.3c0,2.9-1.2,5.1-3.5,6.7c-2.3,1.6-5.7,2.3-10,2.3
			c-3.4,0-6.1-0.7-8-2c-1.9-1.3-2.8-3.2-2.8-5.5c0-1.9,0.6-3.4,1.7-4.7c1.2-1.2,2.7-2.1,4.7-2.5c-0.8-0.4-1.5-0.8-2-1.5
			c-0.5-0.6-0.7-1.4-0.7-2.2c0-1.8,1.2-3.4,3.5-4.8c-1.6-0.7-2.8-1.7-3.7-3.1c-0.9-1.4-1.3-3-1.3-4.8c0-2.7,0.9-4.9,2.6-6.6
			c1.7-1.6,4.1-2.5,7-2.5c1.8,0,3.2,0.2,4.2,0.5H199.7z M177.7,59.8c0,3.7,2.8,5.6,8.4,5.6c7.2,0,10.7-2.3,10.7-6.8
			c0-1.6-0.6-2.8-1.7-3.6c-1.1-0.7-2.9-1.1-5.4-1.1h-4.5C180.2,53.9,177.7,55.8,177.7,59.8z M179.7,36.4c0,2.1,0.6,3.7,1.9,4.9
			c1.3,1.2,3,1.7,5.1,1.7c2.3,0,4-0.6,5.2-1.7c1.2-1.2,1.8-2.8,1.8-5c0-2.3-0.6-4.1-1.9-5.2c-1.2-1.2-3-1.7-5.2-1.7
			c-2.2,0-3.9,0.6-5.1,1.9C180.4,32.4,179.7,34.2,179.7,36.4z"/>
		<path id="XMLID_400_" class="st0" d="M216.1,27.3c1.2,0,2.4,0.1,3.7,0.4l-0.5,2.4c-1.1-0.3-2.3-0.4-3.5-0.4c-2.3,0-4.2,1-5.7,3
			c-1.5,2-2.2,4.5-2.2,7.5v15.1h-2.5V27.9h2.1l0.3,4.9h0.2c1.1-2,2.3-3.4,3.6-4.2C212.7,27.8,214.3,27.3,216.1,27.3z"/>
		<path id="XMLID_397_" class="st0" d="M247.9,41.5c0,4.4-1.1,7.9-3.2,10.4c-2.2,2.5-5.1,3.8-8.9,3.8c-2.4,0-4.5-0.6-6.3-1.7
			c-1.8-1.2-3.2-2.8-4.2-5c-1-2.2-1.5-4.6-1.5-7.5c0-4.4,1.1-7.9,3.2-10.4c2.2-2.5,5.1-3.7,8.9-3.7c3.7,0,6.7,1.3,8.8,3.8
			C246.8,33.6,247.9,37.1,247.9,41.5z M226.3,41.5c0,3.7,0.8,6.7,2.5,8.8c1.6,2.1,4,3.1,7,3.1s5.3-1,7-3.1c1.6-2.1,2.5-5,2.5-8.8
			c0-3.8-0.8-6.7-2.5-8.8c-1.7-2.1-4-3.1-7-3.1c-3,0-5.3,1-7,3.1C227.2,34.8,226.3,37.7,226.3,41.5z"/>
		<path id="XMLID_395_" class="st0" d="M257.6,27.9v17.7c0,2.7,0.6,4.7,1.7,6c1.2,1.2,2.9,1.9,5.4,1.9c3.2,0,5.6-0.8,7.2-2.5
			c1.5-1.6,2.3-4.3,2.3-8V27.9h2.5v27.3h-2.1l-0.5-3.8h-0.2c-1.8,2.8-4.9,4.3-9.5,4.3c-6.2,0-9.3-3.3-9.3-10V27.9H257.6z"/>
		<path id="XMLID_392_" class="st0" d="M297.4,55.6c-4.2,0-7.3-1.6-9.2-4.7H288l0.1,2.1c0.1,1.2,0.1,2.6,0.1,4.1v10.4h-2.5V27.9h2.1
			l0.5,3.9h0.2c1.9-2.9,4.9-4.4,9-4.4c3.7,0,6.5,1.2,8.4,3.6c1.9,2.4,2.9,5.9,2.9,10.5c0,4.5-1,8-3,10.4S300.9,55.6,297.4,55.6z
			 M297.3,53.4c2.8,0,5-1,6.5-3.1c1.5-2.1,2.3-5,2.3-8.7c0-8-2.9-12-8.7-12c-3.2,0-5.5,0.9-7,2.6c-1.5,1.7-2.2,4.6-2.2,8.5v0.8
			c0,4.3,0.7,7.3,2.1,9.1C291.8,52.5,294.1,53.4,297.3,53.4z"/>
	</g>
</g>
</svg>
